<?xml version="1.0" encoding="UTF-8" standalone="no"?>
<svg
   xmlns:dc="http://purl.org/dc/elements/1.1/"
   xmlns:cc="http://creativecommons.org/ns#"
   xmlns:rdf="http://www.w3.org/1999/02/22-rdf-syntax-ns#"
   xmlns:svg="http://www.w3.org/2000/svg"
   xmlns="http://www.w3.org/2000/svg"
   data-name="Layer 1"
   viewBox="0 0 100 100"
   x="0px"
   y="0px"
   version="1.1"
   id="svg10"
   width="100"
   height="100">
  <metadata
     id="metadata16">
    <rdf:RDF>
      <cc:Work
         rdf:about="">
        <dc:format>image/svg+xml</dc:format>
        <dc:type
           rdf:resource="http://purl.org/dc/dcmitype/StillImage" />
        <dc:title>mail50</dc:title>
      </cc:Work>
    </rdf:RDF>
  </metadata>
  <defs
     id="defs14" />
  <title
     id="title2">mail50</title>
  <path
     d="M 50,100 A 50,50 0 1 0 0,50 50,50 0 0 0 50,100 Z M 25.66,35.92 a 7.58,7.58 0 0 1 7.29,-4.67 c 5.66,0 11.32,0 17,0 v 0 c 5.68,0 11.36,0 17,0 a 7.68,7.68 0 0 1 7.31,4.48 1.36,1.36 0 0 1 -0.72,2.1 L 51,49.6 a 1.88,1.88 0 0 1 -1.87,0 L 26.29,37.73 a 1.19,1.19 0 0 1 -0.63,-1.81 z m 1.49,7.51 Q 37.8,49 48.43,54.53 a 3.09,3.09 0 0 0 3.15,0 q 10.58,-5.55 21.19,-11 a 2.44,2.44 0 0 1 0.66,-0.25 1.19,1.19 0 0 1 1.57,1.24 q 0,7.07 0,14.13 a 22.27,22.27 0 0 1 -0.13,3.66 7.62,7.62 0 0 1 -7.64,6.44 c -4.64,0 -9.28,0 -13.91,0 H 32.93 A 7.72,7.72 0 0 1 25.29,63 7.84,7.84 0 0 1 25,61 c 0,-5.44 0,-10.88 0,-16.33 0,-1.37 0.88,-1.89 2.15,-1.24 z"
     id="path4"
     style="fill:#bcd35f" />
</svg>
